<?xml version="1.0" standalone="no"?>
<!DOCTYPE svg PUBLIC "-//W3C//DTD SVG 20010904//EN"
 "http://www.w3.org/TR/2001/REC-SVG-20010904/DTD/svg10.dtd">
<svg version="1.0" xmlns="http://www.w3.org/2000/svg"
 width="70.000000pt" height="70.000000pt" viewBox="0 0 70.000000 70.000000"
 preserveAspectRatio="xMidYMid meet">
<metadata>
Created by potrace 1.11, written by Peter Selinger 2001-2013
</metadata>
<g transform="translate(0.000000,70.000000) scale(0.100000,-0.100000)"
fill="#000000" stroke="none">
<path d="M110 660 c0 -6 11 -22 24 -36 29 -32 44 -16 20 21 -16 25 -44 34 -44
15z"/>
<path d="M546 644 c-26 -37 -5 -54 23 -18 11 15 21 31 21 35 0 18 -26 8 -44
-17z"/>
<path d="M328 645 c-2 -2 -19 -7 -38 -10 -93 -15 -161 -106 -165 -222 -2 -38
-6 -84 -10 -103 -6 -30 -3 -39 18 -60 14 -14 37 -47 52 -75 63 -117 155 -161
231 -112 47 30 68 54 100 116 14 25 36 56 50 69 17 16 24 32 22 53 -1 16 -5
29 -8 29 -3 0 -6 28 -7 63 -1 75 -6 98 -32 140 -20 33 -81 74 -119 80 -11 2
-27 9 -35 15 -15 13 -52 23 -59 17z m141 -212 c19 -10 35 -25 37 -33 1 -8 5
-26 7 -40 3 -14 6 -28 6 -31 1 -4 10 -9 21 -12 27 -7 25 -35 -5 -59 -13 -10
-33 -38 -43 -61 -58 -129 -153 -160 -234 -76 -21 21 -38 41 -39 44 -3 26 -39
87 -56 96 -27 15 -28 59 -1 59 15 0 30 37 33 82 0 13 14 20 47 24 43 7 138 52
138 67 0 6 12 -1 28 -15 15 -14 42 -35 61 -45z"/>
<path d="M243 367 c-16 -9 -20 -16 -13 -26 7 -12 11 -12 24 -2 9 7 27 11 41 8
20 -3 25 -1 23 12 -4 20 -46 25 -75 8z"/>
<path d="M390 371 c0 -20 4 -26 17 -23 7 2 22 -2 34 -9 26 -13 47 2 26 19 -21
17 -77 27 -77 13z"/>
<path d="M257 313 c-17 -16 -5 -33 23 -33 19 0 30 5 30 14 0 20 -39 34 -53 19z"/>
<path d="M397 313 c-17 -16 -5 -33 23 -33 19 0 30 5 30 14 0 20 -39 34 -53 19z"/>
<path d="M270 215 c-12 -14 17 -73 39 -79 37 -12 71 -14 71 -5 0 5 6 9 14 9
19 0 48 62 35 75 -13 13 -148 13 -159 0z"/>
<path d="M30 576 c0 -16 81 -49 93 -37 10 10 -32 39 -67 45 -17 3 -26 0 -26
-8z"/>
<path d="M613 572 c-24 -10 -39 -22 -35 -27 8 -13 17 -12 60 4 17 7 32 19 32
27 0 17 -5 17 -57 -4z"/>
<path d="M34 469 c-8 -14 -4 -17 36 -21 25 -2 36 1 38 12 2 11 -7 16 -33 17
-19 1 -37 -3 -41 -8z"/>
<path d="M596 473 c-15 -15 -3 -23 34 -23 50 0 55 24 6 27 -19 1 -37 -1 -40
-4z"/>
</g>
</svg>
